# xmcd
#
# Track frame offsets:
#	150
#	16495
#	32807
#	49131
#	67096
#	85643
#	98649
#	110495
#	128916
#	141111
#	153485
#	166719
#
# Disc length: 2413 seconds
#
# Revision: 1
# Processed by: cddbd v1.5.2PL0 Copyright (c) Steve Scherf et al.
# Submitted via: audiograbber 1.83.01
#
DISCID=98096b0c
DTITLE=John Battle - 'Lil Bit' Country
DYEAR=2009
DGENRE=
TTITLE0=Joe Blake
TTITLE1=Reflections Of A Drought
TTITLE2=A Song For Mothers
TTITLE3=The Manager
TTITLE4=In The Outback Of Australia
TTITLE5=Your Love Doesn't Live Here Anymore
TTITLE6=Raindrops On The Roof
TTITLE7=Song For Kay
TTITLE8=The Old Plough Inn
TTITLE9=The Sherrif
TTITLE10=I Met The Devil
TTITLE11=From A Kenworth To A Husqy
EXTD=
EXTT0=
EXTT1=
EXTT2=
EXTT3=
EXTT4=
EXTT5=
EXTT6=
EXTT7=
EXTT8=
EXTT9=
EXTT10=
EXTT11=
PLAYORDER=
